<svg xmlns="http://www.w3.org/2000/svg" viewBox="0 0 64 64" role="img" aria-label="Discord">
  <rect width="64" height="64" rx="12" fill="#5865f2"/>
  <path fill="#fff" d="M24.7 20.2c2.3-1 4.7-1.5 7.3-1.5s5 .5 7.3 1.5l.8 1.7c3.8.8 6.5 2.3 8.1 4.2 1.5 5.7 1.1 10.8-1.2 15.3-2.6 1.9-5.1 3.1-7.6 3.8l-1.9-3.1c1-.4 2-.9 2.9-1.5-.6.2-1.3.5-2.1.7-2 .6-4.1.9-6.3.9s-4.3-.3-6.3-.9c-.8-.2-1.5-.5-2.1-.7.9.6 1.9 1.1 2.9 1.5l-1.9 3.1c-2.5-.7-5-1.9-7.6-3.8-2.3-4.5-2.7-9.6-1.2-15.3 1.6-1.9 4.3-3.4 8.1-4.2l.8-1.7zm2.4 9.9c-1.7 0-3 1.6-3 3.5s1.3 3.5 3 3.5 3-1.6 3-3.5-1.3-3.5-3-3.5zm9.8 0c-1.7 0-3 1.6-3 3.5s1.3 3.5 3 3.5 3-1.6 3-3.5-1.3-3.5-3-3.5z"/>
</svg>
